<svg width="1440" height="338" viewBox="0 0 1440 338" fill="none" xmlns="http://www.w3.org/2000/svg">
<g clip-path="url(#clip0_840_113)">
<path d="M-140.401 292.912L139.899 270.496L420.199 136L700.499 225.664L980.799 203.248L1261.1 248.08L1541.4 203.248L1821.7 270.496L2102 292.912L2382.3 203.248L2662.6 270.496V337.744H2382.3H2102H1821.7H1541.4H1261.1H980.799H700.499H420.199H139.899H-140.401V292.912Z" fill="#DADAF9"/>
<path d="M-99.5087 245.492L180.791 212.279L461.091 13L741.391 145.853L1021.69 112.64L1301.99 179.066L1582.29 112.64L1862.59 212.279L2142.89 245.492L2423.19 112.64L2703.49 212.279V311.919H2423.19H2142.89H1862.59H1582.29H1301.99H1021.69H741.391H461.091H180.791H-99.5087V245.492Z" fill="#DADAF9" fill-opacity="0.5"/>
</g>
<defs>
<clipPath id="clip0_840_113">
<rect width="2803" height="338" fill="white" transform="translate(-172)"/>
</clipPath>
</defs>
</svg>
